<svg id="Layer_1" data-name="Layer 1" xmlns="http://www.w3.org/2000/svg" viewBox="0 0 599.73 553.06"><defs><style>.cls-1{font-size:546.47px;font-family:AfterHeadlineLight, After Headline Light;letter-spacing:-0.07em;}.cls-1,.cls-2{fill:#319c5e;}</style></defs><title>LH - Green</title><text class="cls-1" transform="translate(-33.37 369.49) scale(1.02 1)">L</text><text class="cls-1" transform="translate(-33.37 369.49) scale(1.02 1)">L</text><path class="cls-2" d="M242.26,183.58H223.35V519.14c0,22.41,12.79,33.89,37.83,33.89h18.35V217.46C279.53,195.06,267.3,183.58,242.26,183.58Z"/><path class="cls-2" d="M469.81,183.58H450.33V337.11c0,.19,0,.42,0,.71h0c0,.33,0,.71,0,1.12v2.17c0,1.23,0,2.34,0,2.83a1,1,0,0,1,0,.22c0,1.63,0,4.94,0,6.15,0,.63,0,1.86,0,3.12,0,1.09,0,2.05,0,2.82v2.9h0s.06,5.28,0,7c0,1.52,0,3.53,0,4.73V519.14c0,22.41,12.8,33.89,38.39,33.89h17.81V217.46C506.53,195.06,494.28,183.58,469.81,183.58Z"/><path class="cls-2" d="M242.26,183.58H223.35V519.14c0,22.41,12.79,33.89,37.83,33.89h18.35V217.46C279.53,195.06,267.3,183.58,242.26,183.58Z"/><path class="cls-2" d="M469.81,183.58H450.33V337.11c0,.19,0,.42,0,.71h0c0,.33,0,.71,0,1.12v2.17c0,1.23,0,2.34,0,2.83a1,1,0,0,1,0,.22c0,1.63,0,4.94,0,6.15,0,.63,0,1.86,0,3.12,0,1.09,0,2.05,0,2.82v2.9h0s.06,5.28,0,7c0,1.52,0,3.53,0,4.73V519.14c0,22.41,12.8,33.89,38.39,33.89h17.81V217.46C506.53,195.06,494.28,183.58,469.81,183.58Z"/><polygon id="Roof" class="cls-2" points="363.73 276.56 127.21 434.35 363.73 317.94 599.73 433.56 363.73 276.56"/></svg>