<svg xmlns="http://www.w3.org/2000/svg" viewBox="0 0 843.41 267.35"><defs><style>.cls-1{fill:#319c5e;}.cls-2{fill:#fff;}.cls-3{fill:#231f20;}</style></defs><title>Letters - Black_Centered</title><g id="Layer_1" data-name="Layer 1"><path class="cls-1" d="M735.56,102.12H713.81l2.72-7.86h20.39c10.73,0,16-3.47,16-10.42,0-3.93-2.72-6.49-14.35-12.38l-9.06-4.54c-13.14-6.49-15.1-10-15.1-18.42,0-12.69,7.7-17.38,29.6-17.38h20.09l-2.87,7.71H742.51c-8.91,0-13.29,2.87-13.29,8.46,0,4.68,1.06,5.59,10.87,10.87l10.28,5.59c6.19,3.32,9.66,5.29,11.17,6.8a16.51,16.51,0,0,1,5.74,12.84C767.28,96.23,759,102.12,735.56,102.12Z"/><path class="cls-1" d="M38.07,102.12C6.05,102.12,0,95.62,0,71.46V0H5.45c6.64,0,10,3.17,10,9.36V71.46c0,17.67,4.38,21.44,22.65,21.44H60.58l2.87,9.22Z"/><path class="cls-1" d="M135.8,70.4h-40l2.57-8.16h25.37c0-16.31-4.83-24.47-17.52-24.47h-2C92,37.77,86.7,48.19,86.7,63.45v9.36c0,12.09,8.61,21.45,20.7,21.45H127l2.87,7.86H107.55c-22.51,0-35.95-11-35.95-32.33V63.45c0-20.09,12.54-33.08,32.63-33.08h2c20.09,0,30.21,10.57,30.21,31.57A45.56,45.56,0,0,1,135.8,70.4Z"/><path class="cls-1" d="M217.21,99.55c0,30.06-9.22,39.58-41.7,39.58H173.1l2.72-7.71h2.26c19.19,0,24.47-7.25,24.47-31.42V39H184.43q-20.85,0-20.85,24.47v6.34c0,16.32,6.5,24.47,19.34,24.47H193l-2.42,7.86h-7.7c-22.51,0-34.44-10.42-34.44-32.33V63.45c0-21.9,11.93-32.33,34.44-32.33h34.29Z"/><path class="cls-1" d="M289.25,102.12c-6.5,0-9.67-3.17-9.67-9.52V67.68H264.17c-14.05,0-18.43,3.78-18.43,13.9,0,9.66,5,12.68,17.07,12.68h7.1l2.72,7.86H261c-19.49,0-29.15-6.8-29.15-20.54,0-15.11,9.36-21.6,30.66-21.6h16.77c-1.06-14-7.86-21.15-20.39-21.15h-15l-2.42-7.71h17.38c23.41,0,35,10.28,35,30.67v40.33Z"/><path class="cls-1" d="M343.17,102.12c-22.51,0-34.6-10.42-34.6-32.33V63.45c0-21.9,12.09-32.33,34.6-32.33h20.08L360.38,39H343.17C330.33,39,324,47.14,324,63.45v6.34c0,16.32,6.35,24.47,19.19,24.47h17.21l2.87,7.86Z"/><path class="cls-1" d="M439.23,99.55c0,29.76-8.91,39.58-39.73,39.58h-3.93l2.87-7.71h2.12c18.73,0,24.17-6.95,24.62-29.3h-16c-25.53,0-34.29-11.63-34.29-33.23V31h4.38c6.8,0,10.12,3.18,10.12,9.37v24c0,19.94,3,29.9,21.15,29.9H425V31h4.53c6.5,0,9.67,3.18,9.67,9.37Z"/><path class="cls-1" d="M467.17,102.12c-6.8,0-10.28-3.17-10.28-9.37V0H462c6.8,0,10.12,3.17,10.12,9.36v92.75Zm61.78,0c-7,0-10.42-3.17-10.42-9.37V51.36H482.42l2.72-8.91h33.39V0h5.28c6.65,0,10,3.17,10,9.36v92.75Z"/><path class="cls-1" d="M620.93,69.79c0,20.7-13.14,33.24-34.14,33.24h-3.17c-20.69,0-34-12.54-34-33.24V63.45c0-21.3,13.3-33.23,34-33.23h3.17c21.3,0,34.14,11.93,34.14,33.23Zm-14.65-6.34c0-15.86-6.8-25.68-19.49-25.68h-3.17c-12.69,0-19.34,10-19.34,25.68v6.34c0,15.11,6.5,25.68,19.34,25.68h3.17c12.84,0,19.49-10.42,19.49-25.68Z"/><path class="cls-1" d="M670.32,102.12c-23.72,0-34-10.12-34-33.23V31h4.38c6.8,0,10.12,3.18,10.12,9.37v24c0,23.56,5.59,29.9,21.45,29.9h14.2V31h4.68c6.35,0,9.52,3.18,9.52,9.37v61.78Z"/><path class="cls-1" d="M842.8,70.4h-40l2.56-8.16h25.38c0-16.31-4.83-24.47-17.52-24.47h-2c-12.23,0-17.52,10.42-17.52,25.68v9.36c0,12.09,8.61,21.45,20.7,21.45H834l2.87,7.86H814.56c-22.51,0-35.95-11-35.95-32.33V63.45c0-20.09,12.53-33.08,32.62-33.08h2c20.09,0,30.21,10.57,30.21,31.57A44.62,44.62,0,0,1,842.8,70.4Z"/><path class="cls-2" d="M735.56,102.12H713.81l2.72-7.86h20.39c10.73,0,16-3.47,16-10.42,0-3.93-2.72-6.49-14.35-12.38l-9.06-4.54c-13.14-6.49-15.1-10-15.1-18.42,0-12.69,7.7-17.38,29.6-17.38h20.09l-2.87,7.71H742.51c-8.91,0-13.29,2.87-13.29,8.46,0,4.68,1.06,5.59,10.87,10.87l10.28,5.59c6.19,3.32,9.66,5.29,11.17,6.8a16.51,16.51,0,0,1,5.74,12.84C767.28,96.23,759,102.12,735.56,102.12Z"/><path class="cls-2" d="M38.07,102.12C6.05,102.12,0,95.62,0,71.46V0H5.45c6.64,0,10,3.17,10,9.36V71.46c0,17.67,4.38,21.44,22.65,21.44H60.58l2.87,9.22Z"/><path class="cls-2" d="M135.8,70.4h-40l2.57-8.16h25.37c0-16.31-4.83-24.47-17.52-24.47h-2C92,37.77,86.7,48.19,86.7,63.45v9.36c0,12.09,8.61,21.45,20.7,21.45H127l2.87,7.86H107.55c-22.51,0-35.95-11-35.95-32.33V63.45c0-20.09,12.54-33.08,32.63-33.08h2c20.09,0,30.21,10.57,30.21,31.57A45.56,45.56,0,0,1,135.8,70.4Z"/><path class="cls-2" d="M217.21,99.55c0,30.06-9.22,39.58-41.7,39.58H173.1l2.72-7.71h2.26c19.19,0,24.47-7.25,24.47-31.42V39H184.43q-20.85,0-20.85,24.47v6.34c0,16.32,6.5,24.47,19.34,24.47H193l-2.42,7.86h-7.7c-22.51,0-34.44-10.42-34.44-32.33V63.45c0-21.9,11.93-32.33,34.44-32.33h34.29Z"/><path class="cls-2" d="M289.25,102.12c-6.5,0-9.67-3.17-9.67-9.52V67.68H264.17c-14.05,0-18.43,3.78-18.43,13.9,0,9.66,5,12.68,17.07,12.68h7.1l2.72,7.86H261c-19.49,0-29.15-6.8-29.15-20.54,0-15.11,9.36-21.6,30.66-21.6h16.77c-1.06-14-7.86-21.15-20.39-21.15h-15l-2.42-7.71h17.38c23.41,0,35,10.28,35,30.67v40.33Z"/><path class="cls-2" d="M343.17,102.12c-22.51,0-34.6-10.42-34.6-32.33V63.45c0-21.9,12.09-32.33,34.6-32.33h20.08L360.38,39H343.17C330.33,39,324,47.14,324,63.45v6.34c0,16.32,6.35,24.47,19.19,24.47h17.21l2.87,7.86Z"/><path class="cls-2" d="M439.23,99.55c0,29.76-8.91,39.58-39.73,39.58h-3.93l2.87-7.71h2.12c18.73,0,24.17-6.95,24.62-29.3h-16c-25.53,0-34.29-11.63-34.29-33.23V31h4.38c6.8,0,10.12,3.18,10.12,9.37v24c0,19.94,3,29.9,21.15,29.9H425V31h4.53c6.5,0,9.67,3.18,9.67,9.37Z"/><path class="cls-2" d="M467.17,102.12c-6.8,0-10.28-3.17-10.28-9.37V0H462c6.8,0,10.12,3.17,10.12,9.36v92.75Zm61.78,0c-7,0-10.42-3.17-10.42-9.37V51.36H482.42l2.72-8.91h33.39V0h5.28c6.65,0,10,3.17,10,9.36v92.75Z"/><path class="cls-2" d="M620.93,69.79c0,20.7-13.14,33.24-34.14,33.24h-3.17c-20.69,0-34-12.54-34-33.24V63.45c0-21.3,13.3-33.23,34-33.23h3.17c21.3,0,34.14,11.93,34.14,33.23Zm-14.65-6.34c0-15.86-6.8-25.68-19.49-25.68h-3.17c-12.69,0-19.34,10-19.34,25.68v6.34c0,15.11,6.5,25.68,19.34,25.68h3.17c12.84,0,19.49-10.42,19.49-25.68Z"/><path class="cls-2" d="M670.32,102.12c-23.72,0-34-10.12-34-33.23V31h4.38c6.8,0,10.12,3.18,10.12,9.37v24c0,23.56,5.59,29.9,21.45,29.9h14.2V31h4.68c6.35,0,9.52,3.18,9.52,9.37v61.78Z"/><path class="cls-2" d="M842.8,70.4h-40l2.56-8.16h25.38c0-16.31-4.83-24.47-17.52-24.47h-2c-12.23,0-17.52,10.42-17.52,25.68v9.36c0,12.09,8.61,21.45,20.7,21.45H834l2.87,7.86H814.56c-22.51,0-35.95-11-35.95-32.33V63.45c0-20.09,12.53-33.08,32.62-33.08h2c20.09,0,30.21,10.57,30.21,31.57A44.62,44.62,0,0,1,842.8,70.4Z"/><path class="cls-3" d="M735.56,102.12H713.81l2.72-7.86h20.39c10.73,0,16-3.47,16-10.42,0-3.93-2.72-6.49-14.35-12.38l-9.06-4.54c-13.14-6.49-15.1-10-15.1-18.42,0-12.69,7.7-17.38,29.6-17.38h20.09l-2.87,7.71H742.51c-8.91,0-13.29,2.87-13.29,8.46,0,4.68,1.06,5.59,10.87,10.87l10.28,5.59c6.19,3.32,9.66,5.29,11.17,6.8a16.51,16.51,0,0,1,5.74,12.84C767.28,96.23,759,102.12,735.56,102.12Z"/><path class="cls-3" d="M38.07,102.12C6.05,102.12,0,95.62,0,71.46V0H5.45c6.64,0,10,3.17,10,9.36V71.46c0,17.67,4.38,21.44,22.65,21.44H60.58l2.87,9.22Z"/><path class="cls-3" d="M135.8,70.4h-40l2.57-8.16h25.37c0-16.31-4.83-24.47-17.52-24.47h-2C92,37.77,86.7,48.19,86.7,63.45v9.36c0,12.09,8.61,21.45,20.7,21.45H127l2.87,7.86H107.55c-22.51,0-35.95-11-35.95-32.33V63.45c0-20.09,12.54-33.08,32.63-33.08h2c20.09,0,30.21,10.57,30.21,31.57A45.56,45.56,0,0,1,135.8,70.4Z"/><path class="cls-3" d="M217.21,99.55c0,30.06-9.22,39.58-41.7,39.58H173.1l2.72-7.71h2.26c19.19,0,24.47-7.25,24.47-31.42V39H184.43q-20.85,0-20.85,24.47v6.34c0,16.32,6.5,24.47,19.34,24.47H193l-2.42,7.86h-7.7c-22.51,0-34.44-10.42-34.44-32.33V63.45c0-21.9,11.93-32.33,34.44-32.33h34.29Z"/><path class="cls-3" d="M289.25,102.12c-6.5,0-9.67-3.17-9.67-9.52V67.68H264.17c-14.05,0-18.43,3.78-18.43,13.9,0,9.66,5,12.68,17.07,12.68h7.1l2.72,7.86H261c-19.49,0-29.15-6.8-29.15-20.54,0-15.11,9.36-21.6,30.66-21.6h16.77c-1.06-14-7.86-21.15-20.39-21.15h-15l-2.42-7.71h17.38c23.41,0,35,10.28,35,30.67v40.33Z"/><path class="cls-3" d="M343.17,102.12c-22.51,0-34.6-10.42-34.6-32.33V63.45c0-21.9,12.09-32.33,34.6-32.33h20.08L360.38,39H343.17C330.33,39,324,47.14,324,63.45v6.34c0,16.32,6.35,24.47,19.19,24.47h17.21l2.87,7.86Z"/><path class="cls-3" d="M439.23,99.55c0,29.76-8.91,39.58-39.73,39.58h-3.93l2.87-7.71h2.12c18.73,0,24.17-6.95,24.62-29.3h-16c-25.53,0-34.29-11.63-34.29-33.23V31h4.38c6.8,0,10.12,3.18,10.12,9.37v24c0,19.94,3,29.9,21.15,29.9H425V31h4.53c6.5,0,9.67,3.18,9.67,9.37Z"/><path class="cls-3" d="M467.17,102.12c-6.8,0-10.28-3.17-10.28-9.37V0H462c6.8,0,10.12,3.17,10.12,9.36v92.75Zm61.78,0c-7,0-10.42-3.17-10.42-9.37V51.36H482.42l2.72-8.91h33.39V0h5.28c6.65,0,10,3.17,10,9.36v92.75Z"/><path class="cls-3" d="M620.93,69.79c0,20.7-13.14,33.24-34.14,33.24h-3.17c-20.69,0-34-12.54-34-33.24V63.45c0-21.3,13.3-33.23,34-33.23h3.17c21.3,0,34.14,11.93,34.14,33.23Zm-14.65-6.34c0-15.86-6.8-25.68-19.49-25.68h-3.17c-12.69,0-19.34,10-19.34,25.68v6.34c0,15.11,6.5,25.68,19.34,25.68h3.17c12.84,0,19.49-10.42,19.49-25.68Z"/><path class="cls-3" d="M670.32,102.12c-23.72,0-34-10.12-34-33.23V31h4.38c6.8,0,10.12,3.18,10.12,9.37v24c0,23.56,5.59,29.9,21.45,29.9h14.2V31h4.68c6.35,0,9.52,3.18,9.52,9.37v61.78Z"/><path class="cls-3" d="M842.8,70.4h-40l2.56-8.16h25.38c0-16.31-4.83-24.47-17.52-24.47h-2c-12.23,0-17.52,10.42-17.52,25.68v9.36c0,12.09,8.61,21.45,20.7,21.45H834l2.87,7.86H814.56c-22.51,0-35.95-11-35.95-32.33V63.45c0-20.09,12.53-33.08,32.62-33.08h2c20.09,0,30.21,10.57,30.21,31.57A44.62,44.62,0,0,1,842.8,70.4Z"/><path class="cls-3" d="M735.56,102.12H713.81l2.72-7.86h20.39c10.73,0,16-3.47,16-10.42,0-3.93-2.72-6.49-14.35-12.38l-9.06-4.54c-13.14-6.49-15.1-10-15.1-18.42,0-12.69,7.7-17.38,29.6-17.38h20.09l-2.87,7.71H742.51c-8.91,0-13.29,2.87-13.29,8.46,0,4.68,1.06,5.59,10.87,10.87l10.28,5.59c6.19,3.32,9.66,5.29,11.17,6.8a16.51,16.51,0,0,1,5.74,12.84C767.28,96.23,759,102.12,735.56,102.12Z"/><path class="cls-3" d="M38.07,102.12C6.05,102.12,0,95.62,0,71.46V0H5.45c6.64,0,10,3.17,10,9.36V71.46c0,17.67,4.38,21.44,22.65,21.44H60.58l2.87,9.22Z"/><path class="cls-3" d="M135.8,70.4h-40l2.57-8.16h25.37c0-16.31-4.83-24.47-17.52-24.47h-2C92,37.77,86.7,48.19,86.7,63.45v9.36c0,12.09,8.61,21.45,20.7,21.45H127l2.87,7.86H107.55c-22.51,0-35.95-11-35.95-32.33V63.45c0-20.09,12.54-33.08,32.63-33.08h2c20.09,0,30.21,10.57,30.21,31.57A45.56,45.56,0,0,1,135.8,70.4Z"/><path class="cls-3" d="M217.21,99.55c0,30.06-9.22,39.58-41.7,39.58H173.1l2.72-7.71h2.26c19.19,0,24.47-7.25,24.47-31.42V39H184.43q-20.85,0-20.85,24.47v6.34c0,16.32,6.5,24.47,19.34,24.47H193l-2.42,7.86h-7.7c-22.51,0-34.44-10.42-34.44-32.33V63.45c0-21.9,11.93-32.33,34.44-32.33h34.29Z"/><path class="cls-3" d="M289.25,102.12c-6.5,0-9.67-3.17-9.67-9.52V67.68H264.17c-14.05,0-18.43,3.78-18.43,13.9,0,9.66,5,12.68,17.07,12.68h7.1l2.72,7.86H261c-19.49,0-29.15-6.8-29.15-20.54,0-15.11,9.36-21.6,30.66-21.6h16.77c-1.06-14-7.86-21.15-20.39-21.15h-15l-2.42-7.71h17.38c23.41,0,35,10.28,35,30.67v40.33Z"/><path class="cls-3" d="M343.17,102.12c-22.51,0-34.6-10.42-34.6-32.33V63.45c0-21.9,12.09-32.33,34.6-32.33h20.08L360.38,39H343.17C330.33,39,324,47.14,324,63.45v6.34c0,16.32,6.35,24.47,19.19,24.47h17.21l2.87,7.86Z"/><path class="cls-3" d="M439.23,99.55c0,29.76-8.91,39.58-39.73,39.58h-3.93l2.87-7.71h2.12c18.73,0,24.17-6.95,24.62-29.3h-16c-25.53,0-34.29-11.63-34.29-33.23V31h4.38c6.8,0,10.12,3.18,10.12,9.37v24c0,19.94,3,29.9,21.15,29.9H425V31h4.53c6.5,0,9.67,3.18,9.67,9.37Z"/><path class="cls-3" d="M467.17,102.12c-6.8,0-10.28-3.17-10.28-9.37V0H462c6.8,0,10.12,3.17,10.12,9.36v92.75Zm61.78,0c-7,0-10.42-3.17-10.42-9.37V51.36H482.42l2.72-8.91h33.39V0h5.28c6.65,0,10,3.17,10,9.36v92.75Z"/><path class="cls-3" d="M620.93,69.79c0,20.7-13.14,33.24-34.14,33.24h-3.17c-20.69,0-34-12.54-34-33.24V63.45c0-21.3,13.3-33.23,34-33.23h3.17c21.3,0,34.14,11.93,34.14,33.23Zm-14.65-6.34c0-15.86-6.8-25.68-19.49-25.68h-3.17c-12.69,0-19.34,10-19.34,25.68v6.34c0,15.11,6.5,25.68,19.34,25.68h3.17c12.84,0,19.49-10.42,19.49-25.68Z"/><path class="cls-3" d="M670.32,102.12c-23.72,0-34-10.12-34-33.23V31h4.38c6.8,0,10.12,3.18,10.12,9.37v24c0,23.56,5.59,29.9,21.45,29.9h14.2V31h4.68c6.35,0,9.52,3.18,9.52,9.37v61.78Z"/><path class="cls-3" d="M842.8,70.4h-40l2.56-8.16h25.38c0-16.31-4.83-24.47-17.52-24.47h-2c-12.23,0-17.52,10.42-17.52,25.68v9.36c0,12.09,8.61,21.45,20.7,21.45H834l2.87,7.86H814.56c-22.51,0-35.95-11-35.95-32.33V63.45c0-20.09,12.53-33.08,32.62-33.08h2c20.09,0,30.21,10.57,30.21,31.57A44.62,44.62,0,0,1,842.8,70.4Z"/><path class="cls-3" d="M735.56,102.12H713.81l2.72-7.86h20.39c10.73,0,16-3.47,16-10.42,0-3.93-2.72-6.49-14.35-12.38l-9.06-4.54c-13.14-6.49-15.1-10-15.1-18.42,0-12.69,7.7-17.38,29.6-17.38h20.09l-2.87,7.71H742.51c-8.91,0-13.29,2.87-13.29,8.46,0,4.68,1.06,5.59,10.87,10.87l10.28,5.59c6.19,3.32,9.66,5.29,11.17,6.8a16.51,16.51,0,0,1,5.74,12.84C767.28,96.23,759,102.12,735.56,102.12Z"/><path class="cls-3" d="M38.07,102.12C6.05,102.12,0,95.62,0,71.46V0H5.45c6.64,0,10,3.17,10,9.36V71.46c0,17.67,4.38,21.44,22.65,21.44H60.58l2.87,9.22Z"/><path class="cls-3" d="M135.8,70.4h-40l2.57-8.16h25.37c0-16.31-4.83-24.47-17.52-24.47h-2C92,37.77,86.7,48.19,86.7,63.45v9.36c0,12.09,8.61,21.45,20.7,21.45H127l2.87,7.86H107.55c-22.51,0-35.95-11-35.95-32.33V63.45c0-20.09,12.54-33.08,32.63-33.08h2c20.09,0,30.21,10.57,30.21,31.57A45.56,45.56,0,0,1,135.8,70.4Z"/><path class="cls-3" d="M217.21,99.55c0,30.06-9.22,39.58-41.7,39.58H173.1l2.72-7.71h2.26c19.19,0,24.47-7.25,24.47-31.42V39H184.43q-20.85,0-20.85,24.47v6.34c0,16.32,6.5,24.47,19.34,24.47H193l-2.42,7.86h-7.7c-22.51,0-34.44-10.42-34.44-32.33V63.45c0-21.9,11.93-32.33,34.44-32.33h34.29Z"/><path class="cls-3" d="M289.25,102.12c-6.5,0-9.67-3.17-9.67-9.52V67.68H264.17c-14.05,0-18.43,3.78-18.43,13.9,0,9.66,5,12.68,17.07,12.68h7.1l2.72,7.86H261c-19.49,0-29.15-6.8-29.15-20.54,0-15.11,9.36-21.6,30.66-21.6h16.77c-1.06-14-7.86-21.15-20.39-21.15h-15l-2.42-7.71h17.38c23.41,0,35,10.28,35,30.67v40.33Z"/><path class="cls-3" d="M343.17,102.12c-22.51,0-34.6-10.42-34.6-32.33V63.45c0-21.9,12.09-32.33,34.6-32.33h20.08L360.38,39H343.17C330.33,39,324,47.14,324,63.45v6.34c0,16.32,6.35,24.47,19.19,24.47h17.21l2.87,7.86Z"/><path class="cls-3" d="M439.23,99.55c0,29.76-8.91,39.58-39.73,39.58h-3.93l2.87-7.71h2.12c18.73,0,24.17-6.95,24.62-29.3h-16c-25.53,0-34.29-11.63-34.29-33.23V31h4.38c6.8,0,10.12,3.18,10.12,9.37v24c0,19.94,3,29.9,21.15,29.9H425V31h4.53c6.5,0,9.67,3.18,9.67,9.37Z"/><path class="cls-3" d="M467.17,102.12c-6.8,0-10.28-3.17-10.28-9.37V0H462c6.8,0,10.12,3.17,10.12,9.36v92.75Zm61.78,0c-7,0-10.42-3.17-10.42-9.37V51.36H482.42l2.72-8.91h33.39V0h5.28c6.65,0,10,3.17,10,9.36v92.75Z"/><path class="cls-3" d="M620.93,69.79c0,20.7-13.14,33.24-34.14,33.24h-3.17c-20.69,0-34-12.54-34-33.24V63.45c0-21.3,13.3-33.23,34-33.23h3.17c21.3,0,34.14,11.93,34.14,33.23Zm-14.65-6.34c0-15.86-6.8-25.68-19.49-25.68h-3.17c-12.69,0-19.34,10-19.34,25.68v6.34c0,15.11,6.5,25.68,19.34,25.68h3.17c12.84,0,19.49-10.42,19.49-25.68Z"/><path class="cls-3" d="M670.32,102.12c-23.72,0-34-10.12-34-33.23V31h4.38c6.8,0,10.12,3.18,10.12,9.37v24c0,23.56,5.59,29.9,21.45,29.9h14.2V31h4.68c6.35,0,9.52,3.18,9.52,9.37v61.78Z"/><path class="cls-3" d="M842.8,70.4h-40l2.56-8.16h25.38c0-16.31-4.83-24.47-17.52-24.47h-2c-12.23,0-17.52,10.42-17.52,25.68v9.36c0,12.09,8.61,21.45,20.7,21.45H834l2.87,7.86H814.56c-22.51,0-35.95-11-35.95-32.33V63.45c0-20.09,12.53-33.08,32.62-33.08h2c20.09,0,30.21,10.57,30.21,31.57A44.62,44.62,0,0,1,842.8,70.4Z"/></g><g id="Layer_2" data-name="Layer 2"><path class="cls-3" d="M306.85,164.64c-7.35,0-13.13,1.32-17.41,3.94v1.92c0,.08,0,1,0,1s0,1,0,1.05,0,.93,0,1,0,.22,0,.4h2c.09,0,2,0,2.07,0h28.11v83.38c0,6.2,3.47,9.37,10.42,9.37h4.83V174h32.48l2.87-9.36Z"/><path class="cls-3" d="M390.07,182c-5.29,0-8-2.56-8-6.79v-8.92H389c5.13,0,8,2.57,8,6.8V182Zm2,85.35c-6.65,0-10-3.17-10-9.37V196.35h4.83c6.65,0,10,3.17,10,9.36v61.63Z"/><path class="cls-3" d="M447.61,267.34c-22.35,0-28.55-6.34-28.55-25.38V204.05H407l2.87-7.7h9.21V176.1h4.23c6.8,0,10.12,3.18,10.12,9.37v10.88H453.2l-2.87,7.7H433.41v39.88c0,10.42,3.78,15.56,11.33,15.56h7.71l2.72,7.85Z"/><path class="cls-3" d="M472.83,267.34c-6.49,0-9.82-3.17-9.82-9.37V160.85h4.69c6.64,0,10,3.17,10,9.36v97.13Z"/><path class="cls-3" d="M556.51,235.62h-40l2.57-8.16h25.38c0-16.31-4.84-24.47-17.52-24.47h-2c-12.23,0-17.52,10.42-17.52,25.68V238c0,12.08,8.61,21.45,20.69,21.45h19.64l2.87,7.85H528.27c-22.51,0-35.95-11-35.95-32.33v-6.34c0-20.09,12.53-33.08,32.62-33.08h2c20.09,0,30.21,10.57,30.21,31.57A44.62,44.62,0,0,1,556.51,235.62Z"/><polygon class="cls-3" points="289.17 164.63 286.3 174 288.22 174 317.25 174 321.63 174 321.64 164.63 289.17 164.63"/><path class="cls-3" d="M306.85,164.64c-7.35,0-13.13,1.32-17.41,3.94v1.92c0,.08,0,1,0,1s0,1,0,1.05,0,.93,0,1,0,.22,0,.4h2c.09,0,2,0,2.07,0h28.11v83.38c0,6.2,3.47,9.37,10.42,9.37h4.83V174h32.48l2.87-9.36Z"/><path class="cls-3" d="M390.07,182c-5.29,0-8-2.56-8-6.79v-8.92H389c5.13,0,8,2.57,8,6.8V182Zm2,85.35c-6.65,0-10-3.17-10-9.37V196.35h4.83c6.65,0,10,3.17,10,9.36v61.63Z"/><path class="cls-3" d="M447.61,267.34c-22.35,0-28.55-6.34-28.55-25.38V204.05H407l2.87-7.7h9.21V176.1h4.23c6.8,0,10.12,3.18,10.12,9.37v10.88H453.2l-2.87,7.7H433.41v39.88c0,10.42,3.78,15.56,11.33,15.56h7.71l2.72,7.85Z"/><path class="cls-3" d="M472.83,267.34c-6.49,0-9.82-3.17-9.82-9.37V160.85h4.69c6.64,0,10,3.17,10,9.36v97.13Z"/><path class="cls-3" d="M556.51,235.62h-40l2.57-8.16h25.38c0-16.31-4.84-24.47-17.52-24.47h-2c-12.23,0-17.52,10.42-17.52,25.68V238c0,12.08,8.61,21.45,20.69,21.45h19.64l2.87,7.85H528.27c-22.51,0-35.95-11-35.95-32.33v-6.34c0-20.09,12.53-33.08,32.62-33.08h2c20.09,0,30.21,10.57,30.21,31.57A44.62,44.62,0,0,1,556.51,235.62Z"/><polygon class="cls-3" points="289.17 164.63 286.3 174 288.22 174 317.25 174 321.63 174 321.64 164.63 289.17 164.63"/></g></svg>