<svg xmlns="http://www.w3.org/2000/svg" viewBox="0 0 843.51 843.51"><defs><style>.cls-1,.cls-2{font-size:546.47px;font-family:AfterHeadlineLight, After Headline Light;letter-spacing:-0.07em;}.cls-1,.cls-3{fill:#319c5e;}.cls-2,.cls-4{fill:#fff;}.cls-5{fill:#231f20;}</style></defs><title>LH Title Vertical - White-Black</title><g id="Layer_1" data-name="Layer 1"><text class="cls-1" transform="translate(88.35 370.51) scale(1.02 1)">L</text><text class="cls-2" transform="translate(88.35 370.51) scale(1.02 1)">L</text><path class="cls-3" d="M364,184.6H345.06V520.16c0,22.41,12.8,33.89,37.83,33.89h18.36V218.48C401.25,196.07,389,184.6,364,184.6Z"/><path class="cls-3" d="M591.52,184.6H572.05V338.12c0,.19,0,.43,0,.72h0c0,.33,0,.7,0,1.11v2.18c0,1.23,0,2.33,0,2.82,0,.14,0,.19,0,.23,0,1.63,0,4.94,0,6.15,0,.63,0,1.85,0,3.12,0,1.09,0,2.05,0,2.81,0,.94,0,1.94,0,2.08v.83h0s.06,5.27,0,7c0,1.52,0,3.54,0,4.73V520.16c0,22.41,12.79,33.89,38.39,33.89h17.8V218.48C628.24,196.07,616,184.6,591.52,184.6Z"/><path class="cls-4" d="M364,184.6H345.06V520.16c0,22.41,12.8,33.89,37.83,33.89h18.36V218.48C401.25,196.07,389,184.6,364,184.6Z"/><path class="cls-4" d="M591.52,184.6H572.05V338.12c0,.19,0,.43,0,.72h0c0,.33,0,.7,0,1.11v2.18c0,1.23,0,2.33,0,2.82,0,.14,0,.19,0,.23,0,1.63,0,4.94,0,6.15,0,.63,0,1.85,0,3.12,0,1.09,0,2.05,0,2.81,0,.94,0,1.94,0,2.08v.83h0s.06,5.27,0,7c0,1.52,0,3.54,0,4.73V520.16c0,22.41,12.79,33.89,38.39,33.89h17.8V218.48C628.24,196.07,616,184.6,591.52,184.6Z"/><polygon id="Roof" class="cls-5" points="485.45 277.58 248.93 435.36 485.45 318.95 721.45 434.58 485.45 277.58"/><path class="cls-3" d="M735.56,677.88H713.81l2.72-7.86h20.39c10.73,0,16-3.47,16-10.42,0-3.93-2.72-6.49-14.35-12.39l-9.06-4.53c-13.14-6.49-15.1-10-15.1-18.43,0-12.68,7.7-17.37,29.6-17.37h20.09l-2.87,7.71H742.51c-8.91,0-13.29,2.87-13.29,8.46,0,4.68,1.06,5.58,10.87,10.87l10.28,5.59c6.19,3.32,9.66,5.29,11.17,6.8a16.51,16.51,0,0,1,5.74,12.84C767.28,672,759,677.88,735.56,677.88Z"/><path class="cls-3" d="M38.07,677.88c-32,0-38.06-6.5-38.06-30.67V575.77H5.45c6.64,0,10,3.17,10,9.36v62.08c0,17.68,4.38,21.45,22.65,21.45H60.58l2.87,9.22Z"/><path class="cls-3" d="M135.8,646.16h-40L98.33,638h25.38c0-16.31-4.83-24.47-17.52-24.47h-2C92,613.53,86.7,624,86.7,639.21v9.36c0,12.09,8.61,21.45,20.7,21.45H127l2.88,7.86H107.55c-22.51,0-35.95-11-35.95-32.33v-6.34c0-20.09,12.54-33.08,32.63-33.08h2c20.09,0,30.21,10.57,30.21,31.57A45.56,45.56,0,0,1,135.8,646.16Z"/><path class="cls-3" d="M217.21,675.31c0,30.06-9.22,39.58-41.7,39.58H173.1l2.72-7.71h2.26c19.19,0,24.47-7.25,24.47-31.42v-61H184.43q-20.85,0-20.85,24.47v6.34c0,16.32,6.5,24.47,19.34,24.47H193l-2.42,7.86h-7.7c-22.51,0-34.44-10.42-34.44-32.33v-6.34c0-21.9,11.93-32.33,34.44-32.33h34.29Z"/><path class="cls-3" d="M289.25,677.88c-6.5,0-9.67-3.17-9.67-9.52V643.44H264.17c-14.05,0-18.43,3.77-18.43,13.89,0,9.67,5,12.69,17.07,12.69h7.1l2.72,7.86H261c-19.49,0-29.15-6.8-29.15-20.55,0-15.1,9.36-21.6,30.66-21.6h16.77c-1.06-14-7.86-21.14-20.39-21.14h-15l-2.42-7.71h17.38c23.41,0,35,10.28,35,30.67v40.33Z"/><path class="cls-3" d="M343.17,677.88c-22.51,0-34.6-10.42-34.6-32.33v-6.34c0-21.9,12.09-32.33,34.6-32.33h20.08l-2.87,7.86H343.17c-12.84,0-19.19,8.15-19.19,24.47v6.34c0,16.32,6.35,24.47,19.19,24.47h17.21l2.87,7.86Z"/><path class="cls-3" d="M439.23,675.31c0,29.76-8.91,39.58-39.73,39.58h-3.93l2.87-7.71h2.12c18.73,0,24.17-6.95,24.62-29.3h-16c-25.53,0-34.29-11.63-34.29-33.23V606.73h4.38c6.8,0,10.12,3.17,10.12,9.37v24c0,19.93,3,29.9,21.15,29.9H425V606.73h4.53c6.5,0,9.67,3.17,9.67,9.37Z"/><path class="cls-3" d="M467.17,677.88c-6.8,0-10.28-3.17-10.28-9.37V575.77H462c6.8,0,10.12,3.17,10.12,9.36v92.75Zm61.78,0c-7,0-10.42-3.17-10.42-9.37V627.12H482.42l2.72-8.91h33.39V575.77h5.28c6.65,0,10,3.17,10,9.36v92.75Z"/><path class="cls-3" d="M620.93,645.55c0,20.7-13.14,33.23-34.14,33.23h-3.17c-20.69,0-34-12.53-34-33.23v-6.34c0-21.3,13.3-33.23,34-33.23h3.17c21.3,0,34.14,11.93,34.14,33.23Zm-14.65-6.34c0-15.86-6.8-25.68-19.49-25.68h-3.17c-12.69,0-19.34,10-19.34,25.68v6.34c0,15.11,6.5,25.68,19.34,25.68h3.17c12.84,0,19.49-10.42,19.49-25.68Z"/><path class="cls-3" d="M670.32,677.88c-23.72,0-34-10.12-34-33.23V606.73h4.38c6.8,0,10.12,3.17,10.12,9.37v24c0,23.56,5.59,29.9,21.45,29.9h14.2V606.73h4.68c6.35,0,9.52,3.17,9.52,9.37v61.78Z"/><path class="cls-3" d="M842.8,646.16h-40l2.56-8.16h25.38c0-16.31-4.83-24.47-17.52-24.47h-2c-12.23,0-17.52,10.42-17.52,25.68v9.36c0,12.09,8.61,21.45,20.7,21.45H834l2.87,7.86H814.56c-22.51,0-35.95-11-35.95-32.33v-6.34c0-20.09,12.53-33.08,32.62-33.08h2c20.09,0,30.21,10.57,30.21,31.57A44.62,44.62,0,0,1,842.8,646.16Z"/><path class="cls-4" d="M735.56,677.88H713.81l2.72-7.86h20.39c10.73,0,16-3.47,16-10.42,0-3.93-2.72-6.49-14.35-12.39l-9.06-4.53c-13.14-6.49-15.1-10-15.1-18.43,0-12.68,7.7-17.37,29.6-17.37h20.09l-2.87,7.71H742.51c-8.91,0-13.29,2.87-13.29,8.46,0,4.68,1.06,5.58,10.87,10.87l10.28,5.59c6.19,3.32,9.66,5.29,11.17,6.8a16.51,16.51,0,0,1,5.74,12.84C767.28,672,759,677.88,735.56,677.88Z"/><path class="cls-4" d="M38.07,677.88c-32,0-38.06-6.5-38.06-30.67V575.77H5.45c6.64,0,10,3.17,10,9.36v62.08c0,17.68,4.38,21.45,22.65,21.45H60.58l2.87,9.22Z"/><path class="cls-4" d="M135.8,646.16h-40L98.33,638h25.38c0-16.31-4.83-24.47-17.52-24.47h-2C92,613.53,86.7,624,86.7,639.21v9.36c0,12.09,8.61,21.45,20.7,21.45H127l2.88,7.86H107.55c-22.51,0-35.95-11-35.95-32.33v-6.34c0-20.09,12.54-33.08,32.63-33.08h2c20.09,0,30.21,10.57,30.21,31.57A45.56,45.56,0,0,1,135.8,646.16Z"/><path class="cls-4" d="M217.21,675.31c0,30.06-9.22,39.58-41.7,39.58H173.1l2.72-7.71h2.26c19.19,0,24.47-7.25,24.47-31.42v-61H184.43q-20.85,0-20.85,24.47v6.34c0,16.32,6.5,24.47,19.34,24.47H193l-2.42,7.86h-7.7c-22.51,0-34.44-10.42-34.44-32.33v-6.34c0-21.9,11.93-32.33,34.44-32.33h34.29Z"/><path class="cls-4" d="M289.25,677.88c-6.5,0-9.67-3.17-9.67-9.52V643.44H264.17c-14.05,0-18.43,3.77-18.43,13.89,0,9.67,5,12.69,17.07,12.69h7.1l2.72,7.86H261c-19.49,0-29.15-6.8-29.15-20.55,0-15.1,9.36-21.6,30.66-21.6h16.77c-1.06-14-7.86-21.14-20.39-21.14h-15l-2.42-7.71h17.38c23.41,0,35,10.28,35,30.67v40.33Z"/><path class="cls-4" d="M343.17,677.88c-22.51,0-34.6-10.42-34.6-32.33v-6.34c0-21.9,12.09-32.33,34.6-32.33h20.08l-2.87,7.86H343.17c-12.84,0-19.19,8.15-19.19,24.47v6.34c0,16.32,6.35,24.47,19.19,24.47h17.21l2.87,7.86Z"/><path class="cls-4" d="M439.23,675.31c0,29.76-8.91,39.58-39.73,39.58h-3.93l2.87-7.71h2.12c18.73,0,24.17-6.95,24.62-29.3h-16c-25.53,0-34.29-11.63-34.29-33.23V606.73h4.38c6.8,0,10.12,3.17,10.12,9.37v24c0,19.93,3,29.9,21.15,29.9H425V606.73h4.53c6.5,0,9.67,3.17,9.67,9.37Z"/><path class="cls-4" d="M467.17,677.88c-6.8,0-10.28-3.17-10.28-9.37V575.77H462c6.8,0,10.12,3.17,10.12,9.36v92.75Zm61.78,0c-7,0-10.42-3.17-10.42-9.37V627.12H482.42l2.72-8.91h33.39V575.77h5.28c6.65,0,10,3.17,10,9.36v92.75Z"/><path class="cls-4" d="M620.93,645.55c0,20.7-13.14,33.23-34.14,33.23h-3.17c-20.69,0-34-12.53-34-33.23v-6.34c0-21.3,13.3-33.23,34-33.23h3.17c21.3,0,34.14,11.93,34.14,33.23Zm-14.65-6.34c0-15.86-6.8-25.68-19.49-25.68h-3.17c-12.69,0-19.34,10-19.34,25.68v6.34c0,15.11,6.5,25.68,19.34,25.68h3.17c12.84,0,19.49-10.42,19.49-25.68Z"/><path class="cls-4" d="M670.32,677.88c-23.72,0-34-10.12-34-33.23V606.73h4.38c6.8,0,10.12,3.17,10.12,9.37v24c0,23.56,5.59,29.9,21.45,29.9h14.2V606.73h4.68c6.35,0,9.52,3.17,9.52,9.37v61.78Z"/><path class="cls-4" d="M842.8,646.16h-40l2.56-8.16h25.38c0-16.31-4.83-24.47-17.52-24.47h-2c-12.23,0-17.52,10.42-17.52,25.68v9.36c0,12.09,8.61,21.45,20.7,21.45H834l2.87,7.86H814.56c-22.51,0-35.95-11-35.95-32.33v-6.34c0-20.09,12.53-33.08,32.62-33.08h2c20.09,0,30.21,10.57,30.21,31.57A44.62,44.62,0,0,1,842.8,646.16Z"/></g><g id="Layer_2" data-name="Layer 2"><path class="cls-5" d="M306.58,740.16c-7.35,0-13.13,1.33-17.41,4V746c0,.07,0,1,0,1s0,1,0,1,0,.93,0,1v.41h2c.09,0,2,0,2.07,0h28.11v83.38c0,6.19,3.47,9.36,10.42,9.36h4.83V749.53h32.48l2.87-9.37Z"/><path class="cls-5" d="M389.8,757.52c-5.29,0-8-2.57-8-6.8v-8.91h6.95c5.13,0,8,2.57,8,6.8v8.91Zm2,85.34c-6.65,0-10-3.17-10-9.36V771.87h4.83c6.65,0,10,3.17,10,9.36v61.63Z"/><path class="cls-5" d="M447.34,842.86c-22.35,0-28.55-6.34-28.55-25.37V779.57H406.71l2.87-7.7h9.21V751.63H423c6.8,0,10.12,3.17,10.12,9.36v10.88h19.79l-2.87,7.7H433.14v39.88c0,10.42,3.78,15.56,11.33,15.56h7.71l2.72,7.85Z"/><path class="cls-5" d="M472.56,842.86c-6.49,0-9.82-3.17-9.82-9.36V736.37h4.69c6.64,0,10,3.17,10,9.37v97.12Z"/><path class="cls-5" d="M556.24,811.14h-40l2.57-8.16h25.38c0-16.31-4.84-24.47-17.52-24.47h-2c-12.23,0-17.52,10.43-17.52,25.68v9.37c0,12.08,8.61,21.45,20.69,21.45h19.64l2.87,7.85H528c-22.51,0-36-11-36-32.32v-6.35c0-20.09,12.54-33.08,32.63-33.08h2c20.09,0,30.21,10.58,30.21,31.57A44.56,44.56,0,0,1,556.24,811.14Z"/><polygon class="cls-5" points="288.9 740.16 286.03 749.52 287.95 749.52 316.98 749.52 321.36 749.52 321.38 740.16 288.9 740.16"/><path class="cls-4" d="M306.58,740.16c-7.35,0-13.13,1.33-17.41,4V746c0,.07,0,1,0,1s0,1,0,1,0,.93,0,1v.41h2c.09,0,2,0,2.07,0h28.11v83.38c0,6.19,3.47,9.36,10.42,9.36h4.83V749.53h32.48l2.87-9.37Z"/><path class="cls-4" d="M389.8,757.52c-5.29,0-8-2.57-8-6.8v-8.91h6.95c5.13,0,8,2.57,8,6.8v8.91Zm2,85.34c-6.65,0-10-3.17-10-9.36V771.87h4.83c6.65,0,10,3.17,10,9.36v61.63Z"/><path class="cls-4" d="M447.34,842.86c-22.35,0-28.55-6.34-28.55-25.37V779.57H406.71l2.87-7.7h9.21V751.63H423c6.8,0,10.12,3.17,10.12,9.36v10.88h19.79l-2.87,7.7H433.14v39.88c0,10.42,3.78,15.56,11.33,15.56h7.71l2.72,7.85Z"/><path class="cls-4" d="M472.56,842.86c-6.49,0-9.82-3.17-9.82-9.36V736.37h4.69c6.64,0,10,3.17,10,9.37v97.12Z"/><path class="cls-4" d="M556.24,811.14h-40l2.57-8.16h25.38c0-16.31-4.84-24.47-17.52-24.47h-2c-12.23,0-17.52,10.43-17.52,25.68v9.37c0,12.08,8.61,21.45,20.69,21.45h19.64l2.87,7.85H528c-22.51,0-36-11-36-32.32v-6.35c0-20.09,12.54-33.08,32.63-33.08h2c20.09,0,30.21,10.58,30.21,31.57A44.56,44.56,0,0,1,556.24,811.14Z"/><polygon class="cls-4" points="288.9 740.16 286.03 749.52 287.95 749.52 316.98 749.52 321.36 749.52 321.38 740.16 288.9 740.16"/></g></svg>